<svg xmlns="http://www.w3.org/2000/svg" viewBox="0 0 1200 360" width="100%" height="100%">
  <defs>
    <!-- Background Gradient -->
    <linearGradient id="bgGradient" x1="0%" y1="0%" x2="100%" y2="100%">
      <stop offset="0%" stop-color="#070d18"/>
      <stop offset="50%" stop-color="#0b1329"/>
      <stop offset="100%" stop-color="#050811"/>
    </linearGradient>

    <!-- Glowing Cyber Gradients -->
    <linearGradient id="cyanPurple" x1="0%" y1="0%" x2="100%" y2="0%">
      <stop offset="0%" stop-color="#06b6d4"/>
      <stop offset="50%" stop-color="#3b82f6"/>
      <stop offset="100%" stop-color="#8b5cf6"/>
    </linearGradient>

    <linearGradient id="discShine" x1="0%" y1="0%" x2="100%" y2="100%">
      <stop offset="0%" stop-color="#22d3ee" stop-opacity="0.8"/>
      <stop offset="25%" stop-color="#818cf8" stop-opacity="0.3"/>
      <stop offset="50%" stop-color="#c084fc" stop-opacity="0.9"/>
      <stop offset="75%" stop-color="#38bdf8" stop-opacity="0.2"/>
      <stop offset="100%" stop-color="#06b6d4" stop-opacity="0.8"/>
    </linearGradient>

    <linearGradient id="pillBorder" x1="0%" y1="0%" x2="100%" y2="0%">
      <stop offset="0%" stop-color="#0891b2" stop-opacity="0.6"/>
      <stop offset="100%" stop-color="#7c3aed" stop-opacity="0.6"/>
    </linearGradient>

    <!-- Glow Filter -->
    <filter id="glow" x="-20%" y="-20%" width="140%" height="140%">
      <feGaussianBlur stdDeviation="8" result="blur"/>
      <feComposite in="SourceGraphic" in2="blur" operator="over"/>
    </filter>

    <filter id="subtleGlow" x="-20%" y="-20%" width="140%" height="140%">
      <feGaussianBlur stdDeviation="3" result="blur"/>
      <feComposite in="SourceGraphic" in2="blur" operator="over"/>
    </filter>
  </defs>

  <!-- Background Base -->
  <rect width="1200" height="360" rx="16" fill="url(#bgGradient)"/>
  <rect width="1200" height="360" rx="16" fill="none" stroke="#1e293b" stroke-width="2"/>

  <!-- Subtle Cyber Tech Grid Pattern -->
  <g opacity="0.08" stroke="#38bdf8" stroke-width="1">
    <line x1="0" y1="60" x2="1200" y2="60"/>
    <line x1="0" y1="120" x2="1200" y2="120"/>
    <line x1="0" y1="180" x2="1200" y2="180"/>
    <line x1="0" y1="240" x2="1200" y2="240"/>
    <line x1="0" y1="300" x2="1200" y2="300"/>
    <line x1="150" y1="0" x2="150" y2="360"/>
    <line x1="300" y1="0" x2="300" y2="360"/>
    <line x1="450" y1="0" x2="450" y2="360"/>
    <line x1="600" y1="0" x2="600" y2="360"/>
    <line x1="750" y1="0" x2="750" y2="360"/>
    <line x1="900" y1="0" x2="900" y2="360"/>
    <line x1="1050" y1="0" x2="1050" y2="360"/>
  </g>

  <!-- Decorative Accent Glows in Background -->
  <circle cx="150" cy="180" r="140" fill="#06b6d4" opacity="0.12" filter="url(#glow)"/>
  <circle cx="1080" cy="100" r="120" fill="#8b5cf6" opacity="0.10" filter="url(#glow)"/>

  <!-- HERO ICON: Glowing CD/GD-ROM Disc Glyph -->
  <g transform="translate(160, 180)">
    <!-- Outer Rim Glow -->
    <circle cx="0" cy="0" r="105" fill="none" stroke="url(#cyanPurple)" stroke-width="3" filter="url(#subtleGlow)"/>
    
    <!-- Disc Body with Holographic Rainbow Sheen -->
    <circle cx="0" cy="0" r="98" fill="#0f172a" stroke="url(#discShine)" stroke-width="6"/>

    <!-- Concentric Data Tracks -->
    <circle cx="0" cy="0" r="82" fill="none" stroke="#1e293b" stroke-width="1.5" stroke-dasharray="6,4"/>
    <circle cx="0" cy="0" r="68" fill="none" stroke="#334155" stroke-width="1"/>
    <circle cx="0" cy="0" r="54" fill="none" stroke="#0ea5e9" stroke-width="1" stroke-dasharray="14,8" opacity="0.6"/>
    
    <!-- Holographic Light Sweep -->
    <path d="M -85,-35 A 95 95 0 0 1 85,-35 L 0,0 Z" fill="url(#discShine)" opacity="0.15"/>
    <path d="M 85,35 A 95 95 0 0 1 -85,35 L 0,0 Z" fill="url(#discShine)" opacity="0.15"/>

    <!-- Center Clamp Area & Spindle Ring -->
    <circle cx="0" cy="0" r="34" fill="#090d16" stroke="#475569" stroke-width="2"/>
    <circle cx="0" cy="0" r="26" fill="none" stroke="#22d3ee" stroke-width="1.5" opacity="0.8"/>
    <circle cx="0" cy="0" r="14" fill="#020617" stroke="#06b6d4" stroke-width="2.5" filter="url(#subtleGlow)"/>

    <!-- Laser Pick-Up / Read Lens Flare -->
    <circle cx="48" cy="-48" r="4" fill="#22d3ee" filter="url(#subtleGlow)"/>
    <line x1="42" y1="-48" x2="54" y2="-48" stroke="#ffffff" stroke-width="1"/>
    <line x1="48" y1="-54" x2="48" y2="-42" stroke="#ffffff" stroke-width="1"/>
  </g>

  <!-- TYPOGRAPHY SECTION -->
  <g transform="translate(320, 0)">
    <!-- Small Category Kicker -->
    <g transform="translate(0, 78)">
      <rect x="0" y="-18" width="168" height="24" rx="12" fill="#083344" stroke="#0e7490" stroke-width="1"/>
      <text x="84" y="-2" fill="#22d3ee" font-family="-apple-system, BlinkMacSystemFont, 'Segoe UI', Roboto, Helvetica, Arial, sans-serif" font-size="11" font-weight="700" letter-spacing="1.5" text-anchor="middle">
        TAURI V2 · RUST CORE
      </text>
    </g>

    <!-- Main Title -->
    <text x="0" y="142" fill="#ffffff" font-family="-apple-system, BlinkMacSystemFont, 'Segoe UI', Roboto, Helvetica, Arial, sans-serif" font-size="44" font-weight="900" letter-spacing="-0.5">
      ROM INGESTION ENGINE
    </text>

    <!-- Gradient Accent Subtitle -->
    <text x="0" y="182" fill="url(#cyanPurple)" font-family="-apple-system, BlinkMacSystemFont, 'Segoe UI', Roboto, Helvetica, Arial, sans-serif" font-size="19" font-weight="600" letter-spacing="0.2">
      Lossless CHD Compression · Auto-M3U Multi-Disc · 3-Tier Classification
    </text>

    <!-- Description Line -->
    <text x="0" y="214" fill="#94a3b8" font-family="-apple-system, BlinkMacSystemFont, 'Segoe UI', Roboto, Helvetica, Arial, sans-serif" font-size="14" font-weight="400">
      Turn chaotic multi-track disc dumps into clean, scrapable, frontend-ready retro libraries.
    </text>

    <!-- KEY STAT PILLS / VALUE BADGES -->
    <g transform="translate(0, 252)">
      <!-- Pill 1: Storage -->
      <g transform="translate(0, 0)">
        <rect x="0" y="0" width="180" height="38" rx="8" fill="#091428" stroke="url(#pillBorder)" stroke-width="1.2"/>
        <text x="14" y="24" fill="#22d3ee" font-family="-apple-system, BlinkMacSystemFont, 'Segoe UI', sans-serif" font-size="14">⚡</text>
        <text x="34" y="24" fill="#f1f5f9" font-family="-apple-system, BlinkMacSystemFont, 'Segoe UI', sans-serif" font-size="12" font-weight="600">~50% Space Reclaimed</text>
      </g>

      <!-- Pill 2: Auto M3U -->
      <g transform="translate(192, 0)">
        <rect x="0" y="0" width="186" height="38" rx="8" fill="#091428" stroke="url(#pillBorder)" stroke-width="1.2"/>
        <text x="14" y="24" fill="#818cf8" font-family="-apple-system, BlinkMacSystemFont, 'Segoe UI', sans-serif" font-size="14">💿</text>
        <text x="34" y="24" fill="#f1f5f9" font-family="-apple-system, BlinkMacSystemFont, 'Segoe UI', sans-serif" font-size="12" font-weight="600">Auto-M3U Playlists</text>
      </g>

      <!-- Pill 3: Needle AI -->
      <g transform="translate(390, 0)">
        <rect x="0" y="0" width="194" height="38" rx="8" fill="#091428" stroke="url(#pillBorder)" stroke-width="1.2"/>
        <text x="14" y="24" fill="#c084fc" font-family="-apple-system, BlinkMacSystemFont, 'Segoe UI', sans-serif" font-size="14">🧠</text>
        <text x="34" y="24" fill="#f1f5f9" font-family="-apple-system, BlinkMacSystemFont, 'Segoe UI', sans-serif" font-size="12" font-weight="600">Needle 3 On-Device AI</text>
      </g>

      <!-- Pill 4: Dry-Run Safety -->
      <g transform="translate(596, 0)">
        <rect x="0" y="0" width="198" height="38" rx="8" fill="#091428" stroke="url(#pillBorder)" stroke-width="1.2"/>
        <text x="14" y="24" fill="#34d399" font-family="-apple-system, BlinkMacSystemFont, 'Segoe UI', sans-serif" font-size="14">🛡️</text>
        <text x="34" y="24" fill="#f1f5f9" font-family="-apple-system, BlinkMacSystemFont, 'Segoe UI', sans-serif" font-size="12" font-weight="600">100% Non-Destructive</text>
      </g>
    </g>
  </g>
</svg>
